<?xml version="1.0" encoding="UTF-8" standalone="no"?>
<svg
   fill="none"
   viewBox="0 0 16 16"
   version="1.1"
   id="svg1"
   sodipodi:docname="file.svg"
   inkscape:version="1.4.2 (2aeb623e1d, 2025-05-12)"
   xmlns:inkscape="http://www.inkscape.org/namespaces/inkscape"
   xmlns:sodipodi="http://sodipodi.sourceforge.net/DTD/sodipodi-0.dtd"
   xmlns="http://www.w3.org/2000/svg"
   xmlns:svg="http://www.w3.org/2000/svg">
  <defs
     id="defs1" />
  <sodipodi:namedview
     id="namedview1"
     pagecolor="#ffffff"
     bordercolor="#000000"
     borderopacity="0.25"
     inkscape:showpageshadow="2"
     inkscape:pageopacity="0.0"
     inkscape:pagecheckerboard="0"
     inkscape:deskcolor="#d1d1d1"
     inkscape:zoom="50.6875"
     inkscape:cx="7.9901356"
     inkscape:cy="8"
     inkscape:window-width="1920"
     inkscape:window-height="1016"
     inkscape:window-x="0"
     inkscape:window-y="0"
     inkscape:window-maximized="1"
     inkscape:current-layer="svg1" />
  <path
     d="M 14.480271,13.5 V 5.41 a 1,1 0 0 0 -0.3,-0.7 L 9.7802713,0.29 a 1,1 0 0 0 -0.72,-0.29 h -7.58 v 13.5 a 2.5,2.5 0 0 0 2.5,2.5 h 7.9999997 a 2.5,2.5 0 0 0 2.5,-2.5 m -1.5,0 v -7 H 7.9802713 v -5 h -5 v 12 a 1,1 0 0 0 1,1 h 7.9999997 a 1,1 0 0 0 1,-1 M 9.4802713,5 V 2.12 L 12.360271,5 Z m -4.37,0 h -0.62 v 1.25 h 2.12 V 5 Z m -0.62,3 H 11.610271 V 9.25 H 4.4802713 Z m 0.62,3 h -0.62 v 1.25 H 11.610271 V 11 Z"
     clip-rule="evenodd"
     fill="#666"
     fill-rule="evenodd"
     id="path1"
     style="fill:#eaefbd;fill-opacity:1;stroke-width:1;stroke-dasharray:none;stroke:none;stroke-opacity:1" />
</svg>
